HIERARCHY
ROOT Hips
{
	OFFSET 0.00000 0.00000 0.00000
	CHANNELS 6 Xposition Yposition Zposition Zrotation Yrotation Xrotation 
	JOINT LHipJoint
	{
		OFFSET 0 0 0
		CHANNELS 3 Zrotation Yrotation Xrotation
		JOINT LeftHip
		{
			OFFSET 2.36090 -1.39315 1.24752
			CHANNELS 3 Zrotation Yrotation Xrotation
			JOINT LeftKnee
			{
				OFFSET 2.06810 -5.68207 0.00000
				CHANNELS 3 Zrotation Yrotation Xrotation
				JOINT LeftAnkle
				{
					OFFSET 2.46631 -6.77613 0.00000
					CHANNELS 3 Zrotation Yrotation Xrotation
					JOINT LeftToe
					{
						OFFSET 0.26031 -0.71520 1.99545
						CHANNELS 3 Zrotation Yrotation Xrotation
						End Site
						{
							OFFSET 0.00000 -0.00000 1.05957
						}
					}
				}
			}
		}
	}
	JOINT RHipJoint
	{
		OFFSET 0 0 0
		CHANNELS 3 Zrotation Yrotation Xrotation
		JOINT RightHip
		{
			OFFSET -2.25243 -1.39315 1.24752
			CHANNELS 3 Zrotation Yrotation Xrotation
			JOINT RightKnee
			{
				OFFSET -2.17343 -5.97145 0.00000
				CHANNELS 3 Zrotation Yrotation Xrotation
				JOINT RightAnkle
				{
					OFFSET -2.52372 -6.93386 0.00000
					CHANNELS 3 Zrotation Yrotation Xrotation
					JOINT RightToe
					{
						OFFSET -0.22538 -0.61923 2.11447
						CHANNELS 3 Zrotation Yrotation Xrotation
						End Site
						{
							OFFSET -0.00000 -0.00000 1.10506
						}
					}
				}
			}
		}
	}
	JOINT lowerback
	{
		OFFSET 0 0 0
		CHANNELS 3 Zrotation Yrotation Xrotation
		JOINT Chest
		{
			OFFSET 0.01594 2.13103 0.08007
			CHANNELS 3 Zrotation Yrotation Xrotation
			JOINT Chest2
			{
				OFFSET 0.01393 2.09723 0.18338
				CHANNELS 3 Zrotation Yrotation Xrotation
				JOINT lowerneck
				{
					OFFSET 0 0 0
					CHANNELS 3 Zrotation Yrotation Xrotation
					JOINT Neck
					{
						OFFSET 0.05351 1.38915 0.32494
						CHANNELS 3 Zrotation Yrotation Xrotation
						JOINT Head
						{
							OFFSET 0.00711 1.45992 -0.21666
							CHANNELS 3 Zrotation Yrotation Xrotation
							End Site
							{
								OFFSET -0.00433 1.47702 -0.11056
							}
						}
					}
				}
				JOINT LeftCollar
				{
					OFFSET 0 0 0
					CHANNELS 3 Zrotation Yrotation Xrotation
					JOINT LeftShoulder
					{
						OFFSET 2.87198 0.92249 0.11132
CHANNELS 3 Zrotation Xrotation Yrotation
						JOINT LeftElbow
						{
OFFSET 0 -5.527310 0.000000
CHANNELS 3 Zrotation Xrotation Yrotation
							JOINT LeftWrist
							{
OFFSET 0 -3.110590 0.000000
CHANNELS 3 Zrotation Xrotation Yrotation
								JOINT lhand
								{
									OFFSET 0 0 0
CHANNELS 3 Zrotation Xrotation Yrotation
									JOINT LFingers
									{
OFFSET 0 -0.419630 0.000000
CHANNELS 3 Zrotation Xrotation Yrotation
										End Site
										{
OFFSET 0 -0.338310 0.000000
										}
									}
								}
								JOINT LThumb
								{
OFFSET 0 0.000000 0.000000
CHANNELS 3 Zrotation Xrotation Yrotation
									End Site
									{
OFFSET 0 -0.343480 0.343480
									}
								}
							}
						}
					}
				}
				JOINT RightCollar
				{
					OFFSET 0 0 0
					CHANNELS 3 Zrotation Yrotation Xrotation
					JOINT RightShoulder
					{
						OFFSET -2.94710 0.68072 0.32187
CHANNELS 3 Zrotation Xrotation Yrotation
						JOINT RightElbow
						{
OFFSET 0 -5.253960 -0.000000
CHANNELS 3 Zrotation Xrotation Yrotation
							JOINT RightWrist
							{
OFFSET 0 -3.105670 0.000000
CHANNELS 3 Zrotation Xrotation Yrotation
								JOINT rhand
								{
									OFFSET 0 0 0
CHANNELS 3 Zrotation Xrotation Yrotation
									JOINT RFingers
									{
OFFSET 0 -0.498680 0.000000
CHANNELS 3 Zrotation Xrotation Yrotation
										End Site
										{
OFFSET 0 -0.402040 0.000000
										}
									}
								}
								JOINT RThumb
								{
OFFSET 0 0.000000 0.000000
CHANNELS 3 Zrotation Xrotation Yrotation
									End Site
									{
OFFSET 0 -0.408180 0.408180
									}
								}
							}
						}
					}
				}
			}
		}
	}
}
MOTION
Frames: 9
Frame Time: 0.008333333333333333
20.484000 15.199600 16.394600 -7.503100 -55.391600 27.708600 0.000000 0.000000 0.000000 -19.578500 -13.040900 -43.112000 8.756300 16.648300 55.243300 0.429300 0.577400 -12.599900 2.504700 -9.846400 -28.480700 0.000000 0.000000 0.000000 22.694200 24.953000 -36.531200 -4.969400 -13.349300 40.690300 -0.596400 -10.195900 -21.651300 -0.001700 -0.265600 0.729600 -0.012700 -0.846700 -15.613100 0.909200 -1.349600 -6.270100 0.725400 -0.750400 2.127100 -1.131000 -3.165800 -16.777800 3.117600 -4.819300 18.404600 0.641600 -2.048400 8.617200 -0.000000 0.000000 0.000000 7.647000 5.556600 -33.231700 14.109200 -22.890500 2.870400 31.045500 -39.891300 5.377300 0.000000 0.000000 0.000000 -7.125000 0.000000 0.000000 3.227500 23.711800 1.659700 -0.000000 0.000000 0.000000 -9.453900 12.059700 24.364100 -16.044300 -25.580700 -3.665100 -15.329800 -0.253300 12.056100 0.000000 0.000000 0.000000 7.125000 0.000000 -0.000000 10.669200 42.220600 0.740900
20.486760 15.201831 16.469255 -8.028655 -56.686621 27.900989 0.000000 0.000000 0.000000 -18.472993 -13.804880 -44.837991 9.714961 17.245417 58.530009 0.248433 -0.669710 -9.190784 2.521167 -9.876316 -28.577106 0.000000 0.000000 0.000000 22.727415 25.130168 -35.841427 -4.892494 -13.261653 40.355980 -0.720611 -9.205871 -21.907872 -0.030493 -1.126871 3.097993 0.295176 -0.902090 -15.285195 1.392228 -1.485457 -6.282844 1.039760 -0.819343 1.947344 -1.020661 -2.577093 -16.701856 2.664567 -3.933451 18.360948 0.582389 -1.672369 8.555197 0.000000 0.000000 0.000000 6.529755 5.989887 -31.721556 14.332926 -23.208684 2.958018 31.610297 -40.408454 5.197657 0.000000 0.000000 0.000000 -7.125000 0.000000 0.000000 3.657823 23.884216 1.868105 0.000000 0.000000 0.000000 -10.053929 11.516777 23.539150 -15.685381 -25.092136 -3.511483 -16.878450 0.069074 13.127839 0.000000 0.000000 0.000000 7.125000 0.000000 0.000000 9.536716 43.471628 0.363894
20.491233 15.201614 16.549143 -8.886174 -57.927555 28.447762 0.000000 0.000000 0.000000 -16.768445 -15.030053 -46.505443 10.601108 17.732926 61.477472 0.113763 -2.613576 -5.998693 2.076269 -9.020084 -25.860283 0.000000 0.000000 0.000000 22.870465 25.379380 -35.204644 -4.814172 -13.171345 40.013542 -0.726682 -8.677853 -21.506764 -0.011169 -0.678324 1.864040 1.029747 -0.804554 -15.051183 1.585878 -1.466735 -6.258293 0.834583 -0.820304 1.836209 -0.484440 -2.058933 -16.806091 2.281067 -3.281501 18.505558 0.443783 -1.366069 8.593693 0.000000 0.000000 0.000000 6.047500 6.356103 -31.284756 14.660082 -23.670371 3.088223 32.319560 -41.966964 5.237481 0.000000 0.000000 0.000000 -7.125000 0.000000 0.000000 4.179274 23.791767 2.143652 0.000000 0.000000 0.000000 -9.933588 10.986443 22.094760 -15.474813 -24.803401 -3.422686 -18.347784 0.409817 13.919362 0.000000 0.000000 0.000000 7.125000 0.000000 0.000000 8.391030 44.450215 0.116225
20.493490 15.196382 16.632913 -9.900717 -59.240729 29.140000 0.000000 0.000000 0.000000 -14.937044 -16.153234 -47.999261 11.370317 18.110483 63.977186 -0.005804 -4.961210 -3.307963 1.545999 -7.840501 -22.234810 0.000000 0.000000 0.000000 23.014497 25.735541 -34.553853 -4.741972 -13.087150 39.695656 -0.740373 -8.122271 -21.168763 -0.002671 -0.327555 0.900072 1.720492 -0.705847 -14.809724 1.815833 -1.438141 -6.230448 0.693752 -0.816170 1.725989 0.046638 -1.536216 -16.931196 1.895072 -2.624991 18.725313 0.305248 -1.058104 8.668099 0.000000 0.000000 0.000000 5.545939 6.707171 -30.852316 14.935464 -24.056025 3.199635 32.539965 -43.049118 5.238057 0.000000 0.000000 0.000000 -7.125000 0.000000 0.000000 4.341880 23.776328 2.229048 0.000000 0.000000 0.000000 -9.855895 10.504347 20.810291 -15.386573 -24.681931 -3.385733 -19.803243 0.578229 14.657048 0.000000 0.000000 0.000000 7.125000 0.000000 0.000000 7.225471 45.390844 -0.068316
20.492248 15.193034 16.722295 -11.070073 -60.698353 30.030020 0.000000 0.000000 0.000000 -12.940157 -17.315827 -49.206416 11.946828 18.367578 65.819583 -0.119961 -7.361975 -1.705341 1.137136 -6.767865 -19.031150 0.000000 0.000000 0.000000 23.091775 26.280535 -33.896744 -4.668325 -13.000278 39.369508 -0.770481 -7.494211 -20.948347 -0.001700 -0.264874 0.727682 2.391727 -0.572342 -14.664513 1.992112 -1.360035 -6.173668 0.513825 -0.787327 1.696436 0.636827 -1.025333 -17.129462 1.566843 -2.018402 19.041958 0.169929 -0.762469 8.796197 0.000000 0.000000 0.000000 5.204237 7.000500 -30.738140 15.172592 -24.385954 3.296900 32.458999 -43.958588 5.258713 0.000000 0.000000 0.000000 -7.125000 0.000000 0.000000 4.280353 23.757440 2.199135 0.000000 0.000000 0.000000 -9.704612 10.056569 19.843420 -15.463638 -24.787961 -3.417987 -21.268366 0.359899 15.416576 0.000000 0.000000 0.000000 7.125000 0.000000 0.000000 6.034158 46.375505 -0.203448
20.487628 15.195738 16.818556 -12.252218 -62.375791 31.016050 0.000000 0.000000 0.000000 -10.921466 -18.510942 -50.027484 12.274074 18.504046 66.854925 -0.213730 -9.243135 -1.253065 0.948709 -6.202477 -17.373217 0.000000 0.000000 0.000000 22.983540 27.008153 -33.256271 -4.588734 -12.905135 39.014349 -0.796693 -6.853182 -20.704453 -0.001484 -0.242475 0.666204 2.878162 -0.439811 -14.607715 2.151868 -1.261377 -6.103707 0.422348 -0.745199 1.732809 1.234765 -0.513748 -17.389961 1.267723 -1.424403 19.437951 0.042022 -0.468703 8.969901 0.000000 0.000000 0.000000 4.917289 7.230747 -30.840234 15.327479 -24.600291 3.361086 32.054352 -44.502408 5.271062 0.000000 0.000000 0.000000 -7.125000 0.000000 0.000000 3.980681 23.769859 2.043313 0.000000 0.000000 0.000000 -9.619951 9.624508 19.355811 -15.668061 -25.068413 -3.504170 -22.693469 -0.259092 16.134054 0.000000 0.000000 0.000000 7.125000 0.000000 0.000000 4.848134 47.330593 -0.277764
20.478877 15.207369 16.921863 -13.331669 -64.350906 31.964811 0.000000 0.000000 0.000000 -9.004973 -19.740069 -50.343113 12.327870 18.525798 67.024251 -0.256647 -10.304776 -1.693229 0.886257 -6.000878 -16.786977 0.000000 0.000000 0.000000 22.615375 27.898450 -32.608069 -4.505212 -12.803884 38.638736 -0.800383 -6.266262 -20.307707 -0.000388 0.063832 -0.175327 3.033479 -0.324076 -14.587129 2.331888 -1.143573 -6.037761 0.541165 -0.688607 1.792983 1.759485 -0.009830 -17.640921 0.970517 -0.824327 19.881624 -0.070998 -0.177973 9.165489 0.000000 0.000000 0.000000 4.578275 7.422648 -31.137085 15.380178 -24.673042 3.383033 31.504669 -44.670537 5.245169 0.000000 0.000000 0.000000 -7.125000 0.000000 0.000000 3.576543 23.836043 1.829630 0.000000 0.000000 0.000000 -9.709825 9.212996 19.287883 -15.942154 -25.442068 -3.621110 -23.906494 -1.174225 16.663312 0.000000 0.000000 0.000000 7.125000 0.000000 0.000000 3.802602 48.072096 -0.287813
20.466317 15.228548 17.032382 -14.249579 -66.605665 32.776863 0.000000 0.000000 0.000000 -7.243913 -21.069583 -50.087850 12.119034 18.440333 66.365488 -0.238759 -10.630204 -2.737982 0.834676 -5.828054 -16.286391 0.000000 0.000000 0.000000 21.988444 28.871386 -31.937821 -4.422603 -12.702483 38.264790 -0.797301 -5.650060 -19.842894 -0.006837 0.529121 -1.454019 2.963836 -0.197434 -14.605513 2.423852 -0.979639 -5.946365 0.701196 -0.605511 1.903847 2.247375 0.456589 -17.830309 0.743371 -0.281798 20.310132 -0.159905 0.089456 9.351113 0.000000 0.000000 0.000000 4.332818 7.543170 -31.634372 15.325790 -24.597995 3.360387 30.994217 -44.515347 5.243952 0.000000 0.000000 0.000000 -7.125000 0.000000 0.000000 3.199015 23.869985 1.633317 0.000000 0.000000 0.000000 -9.794126 8.801668 19.436190 -16.250708 -25.859308 -3.754675 -24.809369 -2.182368 16.960040 0.000000 0.000000 0.000000 7.125000 0.000000 0.000000 2.993053 48.527903 -0.260534
20.452099 15.255970 17.153040 -14.938361 -69.011930 33.383217 0.000000 0.000000 0.000000 -5.631992 -22.662601 -49.319137 11.691291 18.256880 65.006611 -0.166271 -10.408368 -4.205924 0.760185 -5.568055 -15.536033 0.000000 0.000000 0.000000 21.116633 29.772215 -31.329857 -4.348767 -12.610594 37.927745 -0.813585 -4.855661 -19.474801 -0.016458 0.826836 -2.272572 2.900100 -0.040862 -14.661097 2.308878 -0.769365 -5.843612 0.649085 -0.500211 2.042687 2.765294 0.857523 -17.926821 0.644350 0.131648 20.704857 -0.225548 0.312307 9.512478 0.000000 0.000000 0.000000 4.323398 7.608757 -32.254022 15.177470 -24.392730 3.298905 30.761968 -44.190768 5.405432 0.000000 0.000000 0.000000 -7.125000 0.000000 0.000000 3.016082 23.697445 1.551704 0.000000 0.000000 0.000000 -9.664117 8.423423 19.646157 -16.582373 -26.303929 -3.900463 -25.352497 -3.107170 17.078744 0.000000 0.000000 0.000000 7.125000 0.000000 0.000000 2.489550 48.740673 -0.229812
